<svg id="Capa_1" enable-background="new 0 0 512 512" height="512" viewBox="0 0 512 512" width="512" xmlns="http://www.w3.org/2000/svg"><path d="m463.972 149.559c-.071 0-.142 0-.213.001-1.924.016-3.635-1.123-4.385-2.895-6.456-15.251-21.551-25.954-39.154-25.954s-32.698 10.703-39.154 25.954c-.75 1.771-2.462 2.91-4.385 2.895-.071 0-.142-.001-.213-.001-14.846 0-28.462 12.248-29.572 26.882.989 1.495 1.861 3.074 2.567 4.744.519 1.226 1.703 2.014 3.034 2.003.049 0 .098-.001.147-.001 10.609 0 19.234 8.5 19.434 19.062.021 1.104-.078 2.181-.242 3.238 1.216.161 2.453.251 3.707.251h87.797c15.748 0 29.015-12.887 28.717-28.632-.29-15.264-12.753-27.547-28.085-27.547z" fill="#8bcaff"/><path d="m389.567 177.104c.289-15.263 12.752-27.546 28.084-27.546.071 0 .142 0 .213.001 1.924.016 3.635-1.123 4.385-2.895 3.715-8.776 10.294-16.04 18.563-20.632-6.1-3.388-13.118-5.323-20.592-5.323-17.603 0-32.698 10.703-39.154 25.955-.75 1.771-2.462 2.91-4.385 2.895-.071 0-.142-.001-.213-.001-14.846 0-28.462 12.248-29.572 26.882.989 1.495 1.861 3.074 2.567 4.744.519 1.226 1.703 2.014 3.034 2.003.049 0 .098-.001.147-.001 10.61 0 19.234 8.5 19.434 19.062.021 1.104-.078 2.181-.242 3.238 1.216.161 2.453.251 3.707.251h42.74c-15.747 0-29.015-12.888-28.716-28.633z" fill="#60b8ff"/><path d="m353.255 182.89c-.051 0-.101.001-.152.001-1.373.012-2.594-.801-3.129-2.065-4.608-10.884-15.38-18.523-27.943-18.523-9.127 0-17.295 4.045-22.855 10.424 5.778 13.667 14.051 30.955 25.492 50.256h28.136c11.238 0 20.707-9.197 20.494-20.433-.207-10.893-9.101-19.66-20.043-19.66z" fill="#b4dbff"/><path d="m330.602 183.633c.052 0 .105.001.158.001 1.422.012 2.688-.83 3.242-2.14 1.87-4.418 4.732-8.308 8.291-11.42-5.371-4.828-12.47-7.771-20.261-7.771-9.127 0-17.295 4.045-22.855 10.424 3.13 7.405 7.001 15.88 11.703 25.155 2.735-8.276 10.53-14.249 19.722-14.249z" fill="#8bcaff"/><path d="m332.474 234.338-17.558 14.314c-3.658 2.982-8.908 2.982-12.566 0l-13.754-11.213c-3.658-2.982-8.908-2.982-12.566 0l-13.75 11.212c-3.658 2.983-8.909 2.983-12.567 0l-13.751-11.212c-3.658-2.982-8.909-2.982-12.567 0l-13.75 11.211c-3.658 2.983-8.909 2.983-12.567 0l-17.553-14.312c-30.586 47.895-80.575 105.511-159.585 149.452h472.121c-79.011-43.941-129-101.557-159.587-149.452z" fill="#928392"/><path d="m217.865 241.949-8.219 6.701c-3.658 2.983-8.909 2.983-12.567 0l-17.553-14.312c-30.587 47.895-80.576 105.511-159.586 149.452h109.017c43.1-38.877 71.586-96.442 88.908-141.841z" fill="#7a6d79"/><path d="m197.079 250.651c3.658 2.983 8.909 2.983 12.567 0l13.749-11.211c3.658-2.983 8.909-2.983 12.567 0l13.751 11.212c3.658 2.983 8.909 2.983 12.567 0l13.75-11.212c3.658-2.983 8.908-2.983 12.566-.001l13.754 11.213c3.658 2.982 8.908 2.982 12.566 0l18.404-15.004c-24.308-37.766-36.596-69.666-41.509-84.344-1.478-4.416-6.134-6.471-10.049-4.458-.121.062-.241.124-.362.185-16.115 8.201-34.686 8.201-50.8 0-.12-.061-.241-.123-.362-.185-3.915-2.013-8.571.042-10.049 4.458-4.913 14.678-17.2 46.578-41.509 84.344z" fill="#d9edff"/><path d="m230.6 147.031c-.12-.061-.241-.123-.362-.185-3.915-2.013-8.571.042-10.049 4.458-4.913 14.678-17.2 46.578-41.509 84.344l18.399 15.002c3.658 2.983 8.909 2.983 12.567 0l7.097-5.787c14.315-36.92 21.363-66.393 22.933-72.358 5-19 19.481-19.416 19.481-19.416l-.001-.001c-9.713.558-19.521-1.459-28.556-6.057z" fill="#b4dbff"/><g fill="#7a6d79"><path d="m355.119 350.853c-2.209 0-4.396-.971-5.877-2.835-18.728-23.574-31.823-50.527-39.511-68.987-1.593-3.824.216-8.215 4.04-9.808 3.825-1.594 8.215.217 9.807 4.04 7.322 17.581 19.756 43.202 37.41 65.425 2.577 3.243 2.036 7.961-1.208 10.537-1.381 1.097-3.027 1.628-4.661 1.628z"/><path d="m294.283 328.759c-2.861 0-5.593-1.646-6.843-4.424-9.145-20.316-12.226-43.864-12.352-44.857-.524-4.108 2.381-7.864 6.49-8.389 4.109-.528 7.862 2.379 8.388 6.486.029.222 2.945 22.371 11.151 40.604 1.7 3.776.017 8.217-3.76 9.917-.999.45-2.045.663-3.074.663z"/><path d="m504.5 391.29h-497c-4.142 0-7.5-3.357-7.5-7.5s3.358-7.5 7.5-7.5h497c4.142 0 7.5 3.357 7.5 7.5s-3.358 7.5-7.5 7.5z"/></g></svg>